<svg xmlns="http://www.w3.org/2000/svg" style="isolation:isolate" viewBox="0 0 170 51" width="170" height="51"><defs><clipPath id="a"><path d="M0 0h170v51h-170z"/></clipPath></defs><g clip-path="url(#a)"><path d="M26.75 8.125v24.125h7.5v-19.062q1.688-1.5 3.313-1.125c1.625.375 3.125 1.312 3.312 2.187q.188.875.5 18h7.188q.125-11.187 0-17.25-.14-.64-.438-1.812 1.375-1.438 3.563-.813 2.187.625 3.312 2.625v17.25h7.563v-17.25q-1.188-7.562-7.563-9.125-6.375-1.562-10.875 1.75-3.125-2.812-8.687-2.062-5.563.75-8.688 2.562z" fill="#ffbf00"/><path d="M84.688 24.313l3.5 5.187q-6.188 3.813-11.125 3.625c-4.938-.187-9.875-1.687-11.188-8.812-1.312-7.125-.187-12.313 2.563-15.625 2.75-3.313 9-4.188 12.812-2.688 3.813 1.5 6.625 4.563 6.938 8.563q.312 4 0 7.187h-15.352q.477 3.75 3.039 4.813 2.563 1.062 8.813-2.25zm-11.852-7.313h8.227q.187-5-3.813-5.125t-4.414 5.125zM124.805 24.25l3.5 5.188q-6.187 3.812-11.125 3.625c-4.937-.188-9.875-1.688-11.187-8.813-1.313-7.125-.188-12.312 2.562-15.625 2.75-3.312 9-4.187 12.813-2.687 3.812 1.5 6.625 4.562 6.937 8.562q.313 4 0 7.188h-15.352q.477 3.75 3.04 4.812 2.562 1.063 8.812-2.25zm-11.969-7.25h8.227q.187-5-3.813-5.125t-4.414 5.125zM166 24.381l3.5 5.188q-6.188 3.812-11.125 3.625c-4.938-.188-9.875-1.688-11.188-8.813-1.312-7.125-.187-12.312 2.563-15.625 2.75-3.312 9-4.187 12.812-2.687 3.813 1.5 6.625 4.562 6.938 8.562q.312 4 0 7.188h-15.352q.477 3.75 3.039 4.812 2.563 1.063 8.813-2.25zm-11.969-7.25h8.226q.188-5-3.812-5.125t-4.414 5.125z" fill-rule="evenodd" fill="#ffbf00"/><path d="M91.313 0v25.438q.562 4.375 4.375 6.375 3.812 2 8.687.437v-6.062q-1.625.812-3.375 0-1.75-.813-2-2.938v-23.25h-7.687zM131.563 0v25.438q.687 4.25 3.062 5.687c2.375 1.438 4.75 2.063 6.688 1.938q1.937-.125 3.312-.813v-6.062q-1.687.625-3.375 0-2.035-.754-2-2.938v-11.375h5.813v-6.375h-5.813v-5.5h-7.687z" fill="#ffbf00"/><path d="M11.5 5.5c-6.062-.062-11 4.594-11.5 13.781-.5 9.188 5.189 13.72 11.5 13.782 6.311.061 12.688-3.032 12.438-13.782s-6.375-13.718-12.438-13.781zm.75 6.75c-2.312-.125-4.187 2.563-4.625 6.313-.437 3.75.188 7.437 3.938 7.625 3.75.187 5.312-3.438 4.812-7.313-.5-3.875-1.812-6.5-4.125-6.625z" fill-rule="evenodd" fill="#ffbf00"/><path d="M131.781 40q-1.625-1.437-4.125-1.344c-2.5.094-4.625.938-4.937 3.282-.306 2.292 1.562 3.375 2.781 3.687 1.219.313 3.313.406 3.313 1.688 0 1.281-1.594 1.218-2.657.937q-1.062-.281-2.468-1.219l-1.438 2.219q1.938 1.781 4.75 1.75c2.813-.031 5.031-1.156 5.188-3.25.156-2.094-1.063-3.437-3.157-3.937-2.283-.546-3-.719-3.062-1.5-.063-.782 1.031-1.157 2.281-.907q1.25.25 2.125.875l1.406-2.281zM133.344 36.313v11.25q.156 1.656 1.5 2.437 1.344.781 4.406 1v-2.875q-.625-.031-1.281 0c-.656.031-1.219-.375-1.219-1.094q0-.718-.031-4.75h2.531v-2.937h-2.531v-3.031h-3.375zM152.313 40v10.656h3.531v-8.375q.719-.468 1.469-.562.75-.094 1.875.125v-2.719q-1.782-.562-3.657-.344-1.875.219-3.218 1.219z" fill="#5c5c5c"/><path d="M140.344 42.281v5.282q.531 3.406 5.187 3.437 4.657.031 5.157-3.437v-5.282q-1.25-3.593-5.157-3.625-3.906-.031-5.187 3.625zm3.344.532v4q.312 1.312 1.687 1.312t2.063-1.094v-4.218q-.438-1.313-1.875-1.25-1.438.062-1.875 1.25zM160.094 42.281v5.625q1.687 3.063 5 3.094 3.312.031 4.906-1.75l-1.75-2.219q-1.094 1.344-2.656 1.313-1.563-.031-2.344-1.313v-.968h6.75v-3.782q-.625-3.531-5.094-3.593-4.468-.063-4.812 3.593zm3.156 1.438h3.75q-.156-2.313-1.969-2.281-1.812.031-1.781 2.281z" fill-rule="evenodd" fill="#5c5c5c"/></g></svg>